<svg xmlns="http://www.w3.org/2000/svg" viewBox="0 0 409.49 156.97"><defs><style>.cls-1{fill:#ef4834;}.cls-2{fill:#fff;}.cls-3{fill:#ef4734;}</style></defs><title>DarkBanner</title><g id="Layer_2" data-name="Layer 2"><g id="Layer_1-2" data-name="Layer 1"><path class="cls-1" d="M37.85,47.72A10.24,10.24,0,0,0,31.51,46l-2.46.16V59.3h4.3a6.78,6.78,0,0,0,6.73-6.73A5.8,5.8,0,0,0,37.85,47.72Z"/><path class="cls-1" d="M232.43,1.49l-69.3,21.05a3.59,3.59,0,0,1-4.9-3.64V5.12A5.14,5.14,0,0,0,153.1,0L5.13.07A5.15,5.15,0,0,0,0,5.2V119.11a5.15,5.15,0,0,0,5.13,5.13l148-.07a5.15,5.15,0,0,0,5.13-5.13V106.26a3.59,3.59,0,0,1,4.9-3.64l69.3,21a3.59,3.59,0,0,0,4.9-3.63V5.12A3.59,3.59,0,0,0,232.43,1.49ZM49.4,60.3A13.33,13.33,0,0,1,43,66.23a19.69,19.69,0,0,1-7.35,2l-6.42.16V88.29h-11V36.93H35.77q7.08,0,11.42,4.12a14.29,14.29,0,0,1,4.35,10.86A17.39,17.39,0,0,1,49.4,60.3Zm48.83,28H72.1V36.93h11V77.22H98.23ZM146.41,47.1H128.58V57.46h17.83v10H128.58V78.12h17.83V88.29h-28.9V36.93h28.9Zm67.5,61.64L189.72,72.6l-15.95,24-11.19-3.4,20.49-30.57L162.6,32.05l11.2-3.4,15.92,23.91,24.14-36.07,16.38-5L196.39,62.58l33.89,51.13Z"/><path class="cls-2" d="M262.32,36.88h11V77.12h15.11v11H262.32Z"/><path class="cls-2" d="M325.39,36.88H334l20.89,51.29H343.73l-4.11-10.08H319.94l-4,10.08H304.85Zm4.29,16.8-6,15.11h12.18Z"/><path class="cls-2" d="M373.87,36.88h14.94q9.36,0,12.8,3.9A13.41,13.41,0,0,1,405,49.92a11.56,11.56,0,0,1-1.25,5.6,16.84,16.84,0,0,1-4,4.62q5.31,1.84,7.52,5.42a14.29,14.29,0,0,1,2.2,7.64q0,7.08-4.84,11t-13.61,4H373.87Zm11.05,8.59V56.72h2.53a6.62,6.62,0,0,0,4.71-1.78,5.8,5.8,0,0,0,1.9-4.41,4.45,4.45,0,0,0-1.86-3.59,7.32,7.32,0,0,0-4.67-1.47Zm0,20V79.58h4q9.09,0,9.09-6.66a7,7,0,0,0-2.21-5.55,9.34,9.34,0,0,0-6.33-1.93Z"/><path class="cls-3" d="M10.24,144.05A3.64,3.64,0,0,1,9,147a5.63,5.63,0,0,1-3.65,1.05H4v4.67H2V140.27H5.56a5.44,5.44,0,0,1,3.51,1A3.41,3.41,0,0,1,10.24,144.05ZM4,146.37H5.09a3.85,3.85,0,0,0,2.31-.55,2,2,0,0,0,.74-1.71,1.93,1.93,0,0,0-.66-1.6A3.2,3.2,0,0,0,5.43,142H4Z"/><path class="cls-2" d="M19.85,152.76l-.4-1.31h-.07A3.9,3.9,0,0,1,18,152.62a4.29,4.29,0,0,1-1.77.31,3,3,0,0,1-2.18-.75,2.82,2.82,0,0,1-.78-2.13,2.48,2.48,0,0,1,1.09-2.2,6.13,6.13,0,0,1,3.3-.81l1.63,0v-.51a1.92,1.92,0,0,0-.42-1.35,1.72,1.72,0,0,0-1.31-.45,4.59,4.59,0,0,0-1.39.21,9,9,0,0,0-1.28.51L14.24,144a6.84,6.84,0,0,1,1.68-.61,7.7,7.7,0,0,1,1.73-.21,4.07,4.07,0,0,1,2.72.79,3.07,3.07,0,0,1,.92,2.47v6.36Zm-3-1.37a2.5,2.5,0,0,0,1.76-.61,2.21,2.21,0,0,0,.66-1.71v-.82l-1.22.05a4.12,4.12,0,0,0-2.06.48,1.43,1.43,0,0,0-.64,1.29,1.27,1.27,0,0,0,.37,1A1.62,1.62,0,0,0,16.86,151.39Z"/><path class="cls-2" d="M30.3,143.14a4.61,4.61,0,0,1,1,.09l-.2,1.87a3.68,3.68,0,0,0-.89-.11,2.59,2.59,0,0,0-1.95.79,2.84,2.84,0,0,0-.75,2v4.94h-2v-9.45h1.57l.26,1.67h.11a3.68,3.68,0,0,1,1.22-1.34A3,3,0,0,1,30.3,143.14Z"/><path class="cls-2" d="M38,151.31a5,5,0,0,0,1.47-.23v1.51a3.6,3.6,0,0,1-.86.24,5.52,5.52,0,0,1-1.09.1c-1.9,0-2.85-1-2.85-3v-5.09H33.37v-.89l1.38-.73.68-2h1.24v2.1h2.7v1.52h-2.7v5.06A1.39,1.39,0,0,0,37,151,1.32,1.32,0,0,0,38,151.31Z"/><path class="cls-2" d="M42.65,140.81a1.09,1.09,0,0,1,.29-.83,1.35,1.35,0,0,1,1.67,0,1.3,1.3,0,0,1,0,1.64,1.35,1.35,0,0,1-1.67,0A1.09,1.09,0,0,1,42.65,140.81Zm2.12,11.95h-2v-9.45h2Z"/><path class="cls-2" d="M52.87,152.93a4.13,4.13,0,0,1-3.26-1.25,5.23,5.23,0,0,1-1.11-3.59,5.31,5.31,0,0,1,1.16-3.67A4.37,4.37,0,0,1,53,143.14a6.35,6.35,0,0,1,2.69.56l-.61,1.61a6.12,6.12,0,0,0-2.1-.5c-1.64,0-2.45,1.09-2.45,3.26a3.88,3.88,0,0,0,.61,2.39,2.11,2.11,0,0,0,1.79.8,5,5,0,0,0,2.53-.67v1.75a3.85,3.85,0,0,1-1.15.46A7,7,0,0,1,52.87,152.93Z"/><path class="cls-2" d="M59,140.81a1.1,1.1,0,0,1,.3-.83,1.17,1.17,0,0,1,.84-.29A1.12,1.12,0,0,1,61,140a1.27,1.27,0,0,1,0,1.64,1.12,1.12,0,0,1-.82.29,1.17,1.17,0,0,1-.84-.29A1.09,1.09,0,0,1,59,140.81Zm2.13,11.95h-2v-9.45h2Z"/><path class="cls-2" d="M70.23,152.93a3.31,3.31,0,0,1-2.78-1.29h-.12c.08.8.12,1.28.12,1.45V157h-2V143.31h1.62c0,.18.14.6.29,1.27h.1a3.13,3.13,0,0,1,2.82-1.44A3.27,3.27,0,0,1,73,144.42a7,7,0,0,1,0,7.21A3.31,3.31,0,0,1,70.23,152.93Zm-.48-8.15a2.08,2.08,0,0,0-1.75.7,3.64,3.64,0,0,0-.55,2.24v.3a4.48,4.48,0,0,0,.54,2.5,2.06,2.06,0,0,0,1.79.77,1.81,1.81,0,0,0,1.61-.85A4.47,4.47,0,0,0,72,148a4.25,4.25,0,0,0-.56-2.4A1.85,1.85,0,0,0,69.75,144.78Z"/><path class="cls-2" d="M83.67,152.76l-.4-1.31H83.2a3.88,3.88,0,0,1-1.37,1.17,4.34,4.34,0,0,1-1.78.31,3,3,0,0,1-2.17-.75,2.78,2.78,0,0,1-.79-2.13,2.5,2.5,0,0,1,1.09-2.2,6.15,6.15,0,0,1,3.31-.81l1.63,0v-.51a1.92,1.92,0,0,0-.42-1.35,1.74,1.74,0,0,0-1.32-.45,4.64,4.64,0,0,0-1.39.21,9.48,9.48,0,0,0-1.28.51L78.06,144a6.84,6.84,0,0,1,1.68-.61,7.77,7.77,0,0,1,1.73-.21,4.05,4.05,0,0,1,2.72.79,3.07,3.07,0,0,1,.92,2.47v6.36Zm-3-1.37a2.48,2.48,0,0,0,1.76-.61,2.21,2.21,0,0,0,.66-1.71v-.82l-1.21.05a4.14,4.14,0,0,0-2.07.48,1.43,1.43,0,0,0-.64,1.29,1.24,1.24,0,0,0,.38,1A1.6,1.6,0,0,0,80.68,151.39Z"/><path class="cls-2" d="M92.85,151.31a5,5,0,0,0,1.47-.23v1.51a3.6,3.6,0,0,1-.86.24,5.52,5.52,0,0,1-1.09.1c-1.9,0-2.85-1-2.85-3v-5.09H88.23v-.89l1.38-.73.69-2h1.23v2.1h2.7v1.52h-2.7v5.06A1.43,1.43,0,0,0,91.9,151,1.32,1.32,0,0,0,92.85,151.31Z"/><path class="cls-2" d="M106,148a5.15,5.15,0,0,1-1.19,3.61,4.24,4.24,0,0,1-3.31,1.3,4.53,4.53,0,0,1-2.34-.6,3.87,3.87,0,0,1-1.56-1.71,5.81,5.81,0,0,1-.55-2.6,5.16,5.16,0,0,1,1.18-3.59,4.29,4.29,0,0,1,3.33-1.29,4.16,4.16,0,0,1,3.24,1.32A5.1,5.1,0,0,1,106,148Zm-6.88,0c0,2.18.81,3.27,2.42,3.27s2.39-1.09,2.39-3.27-.8-3.24-2.41-3.24a2.05,2.05,0,0,0-1.83.84A4.26,4.26,0,0,0,99.13,148Z"/><path class="cls-2" d="M114.53,143.14a4.68,4.68,0,0,1,1,.09l-.2,1.87a3.74,3.74,0,0,0-.89-.11,2.59,2.59,0,0,0-2,.79,2.84,2.84,0,0,0-.75,2v4.94h-2v-9.45h1.58l.26,1.67h.1a3.7,3.7,0,0,1,1.23-1.34A2.92,2.92,0,0,1,114.53,143.14Z"/><path class="cls-2" d="M117.26,143.31h2.19l1.92,5.36a10.34,10.34,0,0,1,.58,2.15H122a10.28,10.28,0,0,1,.28-1.14q.21-.68,2.17-6.37h2.17l-4,10.71c-.73,2-2,2.95-3.67,2.95a5.57,5.57,0,0,1-1.3-.15v-1.59a4.55,4.55,0,0,0,1,.1,2.11,2.11,0,0,0,2-1.68l.35-.89Z"/><path class="cls-3" d="M135.67,152.76V140.27h2V151H143v1.75Z"/><path class="cls-2" d="M146.24,140.81a1.1,1.1,0,0,1,.3-.83,1.14,1.14,0,0,1,.84-.29,1.12,1.12,0,0,1,.82.29,1.27,1.27,0,0,1,0,1.64,1.12,1.12,0,0,1-.82.29,1.14,1.14,0,0,1-.84-.29A1.09,1.09,0,0,1,146.24,140.81Zm2.13,11.95h-2v-9.45h2Z"/><path class="cls-2" d="M154.81,152.76l-3.59-9.45h2.12l1.92,5.5a10.94,10.94,0,0,1,.6,2.23h.07a14.55,14.55,0,0,1,.6-2.23l1.92-5.5h2.14L157,152.76Z"/><path class="cls-2" d="M167.57,152.93a4.6,4.6,0,0,1-3.45-1.28,4.89,4.89,0,0,1-1.24-3.55,5.37,5.37,0,0,1,1.15-3.64,4,4,0,0,1,3.17-1.32,3.9,3.9,0,0,1,3,1.14,4.34,4.34,0,0,1,1.08,3.12v1.09h-6.3a3.08,3.08,0,0,0,.75,2.11,2.56,2.56,0,0,0,2,.74,7.65,7.65,0,0,0,1.56-.15,8.91,8.91,0,0,0,1.55-.53v1.63a6,6,0,0,1-1.48.5A9.89,9.89,0,0,1,167.57,152.93Zm-.37-8.27a2,2,0,0,0-1.53.61A2.82,2.82,0,0,0,165,147h4.29a2.62,2.62,0,0,0-.57-1.78A1.91,1.91,0,0,0,167.2,144.66Z"/><path class="cls-3" d="M188.19,152.76h-7.07V140.27h7.07V142h-5v3.4h4.71v1.71h-4.71V151h5Z"/><path class="cls-3" d="M194.19,147.93,191,143.31h2.29l2.15,3.31,2.17-3.31h2.28l-3.18,4.62,3.34,4.83H197.8l-2.34-3.54-2.32,3.54h-2.27Z"/><path class="cls-2" d="M207.94,152.93a3.31,3.31,0,0,1-2.79-1.29H205c.08.8.12,1.28.12,1.45V157h-2V143.31h1.62c0,.18.14.6.28,1.27h.1a3.15,3.15,0,0,1,2.82-1.44,3.3,3.3,0,0,1,2.76,1.28,7.06,7.06,0,0,1,0,7.21A3.29,3.29,0,0,1,207.94,152.93Zm-.49-8.15a2.08,2.08,0,0,0-1.75.7,3.7,3.7,0,0,0-.55,2.24v.3a4.47,4.47,0,0,0,.55,2.5,2,2,0,0,0,1.79.77,1.8,1.8,0,0,0,1.6-.85,4.38,4.38,0,0,0,.57-2.44,4.25,4.25,0,0,0-.56-2.4A1.88,1.88,0,0,0,207.45,144.78Z"/><path class="cls-2" d="M219.59,152.93a4.6,4.6,0,0,1-3.45-1.28,4.93,4.93,0,0,1-1.24-3.55,5.37,5.37,0,0,1,1.16-3.64,4,4,0,0,1,3.17-1.32,3.88,3.88,0,0,1,3,1.14,4.3,4.3,0,0,1,1.09,3.12v1.09H217a3.12,3.12,0,0,0,.74,2.11,2.58,2.58,0,0,0,2,.74,7.72,7.72,0,0,0,1.56-.15,9.2,9.2,0,0,0,1.55-.53v1.63a6.08,6.08,0,0,1-1.49.5A9.73,9.73,0,0,1,219.59,152.93Zm-.36-8.27a2,2,0,0,0-1.54.61A2.93,2.93,0,0,0,217,147h4.29a2.67,2.67,0,0,0-.56-1.78A1.94,1.94,0,0,0,219.23,144.66Z"/><path class="cls-2" d="M231.76,143.14a4.61,4.61,0,0,1,1,.09l-.2,1.87a3.68,3.68,0,0,0-.89-.11,2.59,2.59,0,0,0-1.95.79,2.84,2.84,0,0,0-.75,2v4.94h-2v-9.45h1.57l.26,1.67h.11a3.68,3.68,0,0,1,1.22-1.34A3,3,0,0,1,231.76,143.14Z"/><path class="cls-2" d="M235.81,140.81a1.13,1.13,0,0,1,.29-.83,1.18,1.18,0,0,1,.85-.29,1.14,1.14,0,0,1,.82.29,1.27,1.27,0,0,1,0,1.64,1.14,1.14,0,0,1-.82.29,1.18,1.18,0,0,1-.85-.29A1.13,1.13,0,0,1,235.81,140.81Zm2.13,11.95h-2v-9.45h2Z"/><path class="cls-2" d="M246.35,152.93a4.6,4.6,0,0,1-3.45-1.28,4.93,4.93,0,0,1-1.24-3.55,5.37,5.37,0,0,1,1.16-3.64,4,4,0,0,1,3.17-1.32,3.88,3.88,0,0,1,2.95,1.14A4.3,4.3,0,0,1,250,147.4v1.09h-6.3a3.12,3.12,0,0,0,.74,2.11,2.58,2.58,0,0,0,2,.74,7.79,7.79,0,0,0,1.56-.15,9.2,9.2,0,0,0,1.55-.53v1.63a6.08,6.08,0,0,1-1.49.5A9.73,9.73,0,0,1,246.35,152.93Zm-.36-8.27a2,2,0,0,0-1.54.61,2.93,2.93,0,0,0-.69,1.77h4.29a2.67,2.67,0,0,0-.56-1.78A1.94,1.94,0,0,0,246,144.66Z"/><path class="cls-2" d="M262,152.76h-2V147a2.5,2.5,0,0,0-.44-1.63,1.69,1.69,0,0,0-1.39-.54,2.25,2.25,0,0,0-1.87.75,4.17,4.17,0,0,0-.59,2.52v4.71h-2v-9.45h1.57l.28,1.24h.1a2.77,2.77,0,0,1,1.22-1,4,4,0,0,1,1.74-.37q3.41,0,3.4,3.46Z"/><path class="cls-2" d="M270.06,152.93a4.13,4.13,0,0,1-3.26-1.25,5.23,5.23,0,0,1-1.11-3.59,5.31,5.31,0,0,1,1.16-3.67,4.37,4.37,0,0,1,3.38-1.28,6.35,6.35,0,0,1,2.69.56l-.61,1.61a6.12,6.12,0,0,0-2.1-.5c-1.64,0-2.45,1.09-2.45,3.26a3.88,3.88,0,0,0,.61,2.39,2.11,2.11,0,0,0,1.79.8,5.11,5.11,0,0,0,2.54-.67v1.75a4.07,4.07,0,0,1-1.15.46A7.11,7.11,0,0,1,270.06,152.93Z"/><path class="cls-2" d="M280.46,152.93a4.6,4.6,0,0,1-3.45-1.28,4.89,4.89,0,0,1-1.24-3.55,5.37,5.37,0,0,1,1.15-3.64,4,4,0,0,1,3.17-1.32,3.89,3.89,0,0,1,3,1.14,4.34,4.34,0,0,1,1.09,3.12v1.09h-6.3a3.07,3.07,0,0,0,.74,2.11,2.57,2.57,0,0,0,2,.74,7.65,7.65,0,0,0,1.56-.15,9,9,0,0,0,1.56-.53v1.63a6.08,6.08,0,0,1-1.49.5A9.81,9.81,0,0,1,280.46,152.93Zm-.37-8.27a2,2,0,0,0-1.53.61,2.93,2.93,0,0,0-.69,1.77h4.29a2.67,2.67,0,0,0-.56-1.78A2,2,0,0,0,280.09,144.66Z"/><path class="cls-2" d="M294.18,150.07a2.45,2.45,0,0,1-1,2.12,4.75,4.75,0,0,1-2.88.74,6.9,6.9,0,0,1-3-.57v-1.74a7.35,7.35,0,0,0,3.1.77q1.86,0,1.86-1.11a.88.88,0,0,0-.21-.6,2.31,2.31,0,0,0-.67-.5,12.13,12.13,0,0,0-1.31-.58,6.09,6.09,0,0,1-2.21-1.26,2.37,2.37,0,0,1-.57-1.64,2.16,2.16,0,0,1,1-1.89,4.65,4.65,0,0,1,2.67-.67,7.53,7.53,0,0,1,3.15.68l-.65,1.51a7,7,0,0,0-2.57-.63q-1.59,0-1.59.9a.91.91,0,0,0,.41.75,9,9,0,0,0,1.81.85,8.11,8.11,0,0,1,1.7.83,2.49,2.49,0,0,1,.79.87A2.47,2.47,0,0,1,294.18,150.07Z"/><path class="cls-2" d="M304,152.76V140.27h2V151h5.29v1.75Z"/><path class="cls-2" d="M320.55,152.76l-.4-1.31h-.07a3.9,3.9,0,0,1-1.38,1.17,4.29,4.29,0,0,1-1.77.31,3,3,0,0,1-2.18-.75,2.82,2.82,0,0,1-.78-2.13,2.48,2.48,0,0,1,1.09-2.2,6.13,6.13,0,0,1,3.3-.81l1.63,0v-.51a1.92,1.92,0,0,0-.42-1.35,1.72,1.72,0,0,0-1.31-.45,4.59,4.59,0,0,0-1.39.21,9.61,9.61,0,0,0-1.29.51l-.64-1.44a6.84,6.84,0,0,1,1.68-.61,7.7,7.7,0,0,1,1.73-.21,4.07,4.07,0,0,1,2.72.79,3.07,3.07,0,0,1,.92,2.47v6.36Zm-3-1.37a2.5,2.5,0,0,0,1.76-.61,2.21,2.21,0,0,0,.66-1.71v-.82l-1.22.05a4.12,4.12,0,0,0-2.06.48,1.44,1.44,0,0,0-.65,1.29,1.27,1.27,0,0,0,.38,1A1.62,1.62,0,0,0,317.56,151.39Z"/><path class="cls-2" d="M331,143.14a3.3,3.3,0,0,1,2.76,1.28,7,7,0,0,1,0,7.22,3.65,3.65,0,0,1-5.57,0h-.13l-.37,1.12h-1.5V139.47h2v3.16c0,.23,0,.58,0,1s0,.75-.05.88h.08A3.19,3.19,0,0,1,331,143.14Zm-.52,1.64a2,2,0,0,0-1.74.71,4.21,4.21,0,0,0-.56,2.39V148a4.47,4.47,0,0,0,.55,2.5,2,2,0,0,0,1.79.77,1.82,1.82,0,0,0,1.62-.84,4.58,4.58,0,0,0,.55-2.45C332.72,145.85,332,144.78,330.51,144.78Z"/><path class="cls-2" d="M346.91,148a5.15,5.15,0,0,1-1.19,3.61,4.24,4.24,0,0,1-3.31,1.3,4.53,4.53,0,0,1-2.34-.6,3.87,3.87,0,0,1-1.56-1.71A5.81,5.81,0,0,1,338,148a5.16,5.16,0,0,1,1.18-3.59,4.29,4.29,0,0,1,3.33-1.29,4.15,4.15,0,0,1,3.24,1.32A5.1,5.1,0,0,1,346.91,148ZM340,148c0,2.18.81,3.27,2.42,3.27s2.39-1.09,2.39-3.27-.8-3.24-2.41-3.24a2.05,2.05,0,0,0-1.83.84A4.26,4.26,0,0,0,340,148Z"/><path class="cls-2" d="M355.43,143.14a4.61,4.61,0,0,1,1,.09l-.2,1.87a3.68,3.68,0,0,0-.89-.11,2.59,2.59,0,0,0-1.95.79,2.84,2.84,0,0,0-.75,2v4.94h-2v-9.45h1.58l.26,1.67h.1a3.79,3.79,0,0,1,1.23-1.34A2.92,2.92,0,0,1,355.43,143.14Z"/><path class="cls-2" d="M365.51,152.76l-.4-1.31H365a3.9,3.9,0,0,1-1.38,1.17,4.29,4.29,0,0,1-1.77.31,3,3,0,0,1-2.18-.75,2.82,2.82,0,0,1-.78-2.13,2.48,2.48,0,0,1,1.09-2.2,6.13,6.13,0,0,1,3.3-.81l1.63,0v-.51a1.92,1.92,0,0,0-.42-1.35,1.72,1.72,0,0,0-1.31-.45,4.59,4.59,0,0,0-1.39.21,9.61,9.61,0,0,0-1.29.51L359.9,144a6.84,6.84,0,0,1,1.68-.61,7.7,7.7,0,0,1,1.73-.21,4.07,4.07,0,0,1,2.72.79,3.07,3.07,0,0,1,.92,2.47v6.36Zm-3-1.37a2.5,2.5,0,0,0,1.76-.61,2.21,2.21,0,0,0,.66-1.71v-.82l-1.22.05a4.12,4.12,0,0,0-2.06.48,1.44,1.44,0,0,0-.65,1.29,1.27,1.27,0,0,0,.38,1A1.62,1.62,0,0,0,362.52,151.39Z"/><path class="cls-2" d="M374.69,151.31a5,5,0,0,0,1.47-.23v1.51a3.74,3.74,0,0,1-.86.24,5.6,5.6,0,0,1-1.09.1c-1.91,0-2.86-1-2.86-3v-5.09h-1.29v-.89l1.39-.73.68-2h1.24v2.1h2.69v1.52h-2.69v5.06a1.43,1.43,0,0,0,.36,1.07A1.33,1.33,0,0,0,374.69,151.31Z"/><path class="cls-2" d="M387.84,148a5.15,5.15,0,0,1-1.18,3.61,4.25,4.25,0,0,1-3.31,1.3,4.53,4.53,0,0,1-2.34-.6,4,4,0,0,1-1.57-1.71,6,6,0,0,1-.54-2.6,5.11,5.11,0,0,1,1.18-3.59,4.26,4.26,0,0,1,3.32-1.29,4.17,4.17,0,0,1,3.25,1.32A5.09,5.09,0,0,1,387.84,148ZM381,148c0,2.18.8,3.27,2.41,3.27s2.4-1.09,2.4-3.27-.81-3.24-2.41-3.24a2.06,2.06,0,0,0-1.84.84A4.34,4.34,0,0,0,381,148Z"/><path class="cls-2" d="M396.36,143.14a4.55,4.55,0,0,1,1,.09l-.19,1.87a3.8,3.8,0,0,0-.89-.11,2.6,2.6,0,0,0-2,.79,2.87,2.87,0,0,0-.74,2v4.94h-2v-9.45h1.57l.27,1.67h.1a3.68,3.68,0,0,1,1.22-1.34A3,3,0,0,1,396.36,143.14Z"/><path class="cls-2" d="M399.1,143.31h2.18l1.93,5.36a10.34,10.34,0,0,1,.58,2.15h.07a8.43,8.43,0,0,1,.28-1.14c.13-.45.86-2.57,2.17-6.37h2.17l-4,10.71c-.74,2-2,2.95-3.68,2.95a5.64,5.64,0,0,1-1.3-.15v-1.59a4.65,4.65,0,0,0,1,.1,2.11,2.11,0,0,0,2-1.68l.35-.89Z"/></g></g></svg>