<svg xmlns="http://www.w3.org/2000/svg" viewBox="0 0 245.85 276.71"><defs><style>.cls-1{fill:#fff;}</style></defs><title>Asset 2</title><g id="Layer_2" data-name="Layer 2"><g id="Layer_1-2" data-name="Layer 1"><polygon class="cls-1" points="114.05 180.38 129.46 180.38 121.51 160.02 114.05 180.38"/><path class="cls-1" d="M245.85,0H0L.12,276.71h40V257.35h69l-3-14.52H245.85Zm-223,200.29a52.88,52.88,0,0,1-12.3-1.77l-.72-.18V191.8l.37.22c2.8,1.62,8.31,4.34,13.82,4.34,4.05,0,8.87-1.44,8.87-8.29,0-5.37-5.12-8-10.55-10.89C16.18,174,9.19,170.3,9.19,161.94c0-8.07,6.23-12.88,16.67-12.88a61.16,61.16,0,0,1,11.52,1.28l.41.08v6l-.35-.17a32.13,32.13,0,0,0-13-3.26c-3.27,0-6.76,1.79-6.76,6.83s5,7.58,10.27,10.3c6.3,3.25,13.45,6.94,13.45,15.54C41.44,195,34.67,200.29,22.87,200.29Zm67.57-39.12v-.25c0-5.26-2-7.13-7.71-7.13H78v45.7H69.49v-45.7H64.7c-5.48,0-7.19,1.55-7.64,6.93V161H54.51l.31-11.09H92.68L93,161.17ZM95.37,56.6v82.7h-15l-.14-.24L31.47,55.39V121.1c0,11.44,1.83,13.45,12.25,13.45h.5v4.75H8.27v-.5c0-4.25,0-4.25.5-4.25,10.31,0,12.25-2.13,12.25-13.45V56.6c0-11.31-1.94-13.45-12.25-13.45h-.5V38.4H38.46l.14.25,46.32,79.47V56.6c0-11.31-1.94-13.45-12.25-13.45h-.5V38.4h36v4.75h-.5C97.2,43.15,95.37,45.16,95.37,56.6Zm41,142.89-5.47-15.18H112.63l-5.48,15.18h-5.06l14.65-40.12a31.33,31.33,0,0,0,1.23-4.22c0-2.43-2-2.71-4.59-3.07-.27,0-.55-.07-.82-.12l-.21,0v-2.07h14.14l.07.17,17.93,49.46Zm53.23-38.32v-.25c0-5.26-2-7.13-7.71-7.13h-4.71v45.7h-8.53v-45.7h-4.79c-5.48,0-7.19,1.56-7.63,6.93l0,.23h-2.53l.3-11.09h37.86l.31,11.31Zm-10.12-22h-11.2l-.12-.33L137.32,52.41V121c0,11.44,1.83,13.45,12.25,13.45h.5v4.75H114.12v-4.75h.5c10.42,0,12.25-2,12.25-13.45V56.51c0-11.44-1.83-13.45-12.25-13.45h-.5V38.31h33.55l.12.33,28.63,81,29.05-81.33h33.85v4.75h-.5c-10.3,0-12.25,2.14-12.25,13.45V121c0,11.31,2,13.45,12.25,13.45h.5v4.75H197.67v-4.75h.5c10.3,0,12.25-2.14,12.25-13.45V52.41Zm59.74,60.28H209.59V160c0-7,0-7-6.62-8.06l-.31,0v-2.07h35.46l.23,11.31H235.8v-.25c0-5.06-2.21-7.13-7.64-7.13h-5.69c-3.64,0-4.35.29-4.35,3.55v14.28h8.58c4.76,0,5.3-3,5.73-5.32l0-.31H235v15.83h-2.54v-.25c0-4.11-1.82-6-5.74-6h-8.58v16c0,3.85.76,4,4.35,4h8.1c3.76,0,5.88-1.1,6.32-6.92l0-.23h2.53Z"/></g></g></svg>